<svg width="90" height="90" viewBox="0 0 90 90" fill="none" xmlns="http://www.w3.org/2000/svg">
<path d="M63.8333 41.5833H69.6667V32.8333H63.8333V41.5833Z" fill="black"/>
<path fill-rule="evenodd" clip-rule="evenodd" d="M45 90C69.8528 90 90 69.8528 90 45C90 20.1472 69.8528 0 45 0C20.1472 0 0 20.1472 0 45C0 69.8528 20.1472 90 45 90ZM23 27H69.6667C72.9042 27 75.5 29.5958 75.5 32.8333V41.5833C75.5 44.7917 72.9042 47.4167 69.6667 47.4167H63.8333V56.1667C63.8333 62.6125 58.6125 67.8333 52.1667 67.8333H34.6667C28.2208 67.8333 23 62.6125 23 56.1667V27Z" fill="black"/>
</svg>
