<svg width="90" height="90" viewBox="0 0 90 90" fill="none" xmlns="http://www.w3.org/2000/svg">
<path fill-rule="evenodd" clip-rule="evenodd" d="M45 90C69.8528 90 90 69.8528 90 45C90 20.1472 69.8528 0 45 0C20.1472 0 0 20.1472 0 45C0 69.8528 20.1472 90 45 90ZM36.8125 59.125L28.1875 50.5V36.125H62.6875V50.5L54.0625 59.125V73.5H36.8125V59.125ZM48.3125 16H42.5625V24.625H48.3125V16ZM25.0537 23.1012L21 27.155L27.095 33.25L31.1488 29.1963L25.0537 23.1012ZM65.7925 23.1012L59.6975 29.1963L63.78 33.25L69.8463 27.155L65.7925 23.1012Z" fill="black"/>
</svg>
